HIERARCHY
ROOT ui
{
	 OFFSET 0 0 0
	 CHANNELS 3 XPosition YPosition Z Position
	 EndSite
	 {
	 OFFSET 0 -1 0
	 }
}
ROOT li
{
	 OFFSET 0 0 0
	 CHANNELS 3 XPosition YPosition Z Position
	 EndSite
	 {
	 OFFSET 0 -1 0
	 }
}
ROOT ul
{
	 OFFSET 0 0 0
	 CHANNELS 3 XPosition YPosition Z Position
	 EndSite
	 {
	 OFFSET 0 -1 0
	 }
}
ROOT ll
{
	 OFFSET 0 0 0
	 CHANNELS 3 XPosition YPosition Z Position
	 EndSite
	 {
	 OFFSET 0 -1 0
	 }
}
ROOT tt
{
	 OFFSET 0 0 0
	 CHANNELS 3 XPosition YPosition Z Position
	 EndSite
	 {
	 OFFSET 0 -1 0
	 }
}
ROOT tb
{
	 OFFSET 0 0 0
	 CHANNELS 3 XPosition YPosition Z Position
	 EndSite
	 {
	 OFFSET 0 -1 0
	 }
}
ROOT td
{
	 OFFSET 0 0 0
	 CHANNELS 3 XPosition YPosition Z Position
	 EndSite
	 {
	 OFFSET 0 -1 0
	 }
}
ROOT v
{
	 OFFSET 0 0 0
	 CHANNELS 3 XPosition YPosition Z Position
	 EndSite
	 {
	 OFFSET 0 -1 0
	 }
}
ROOT bn
{
	 OFFSET 0 0 0
	 CHANNELS 3 XPosition YPosition Z Position
	 EndSite
	 {
	 OFFSET 0 -1 0
	 }
}
MOTION
Frames: 13
Frame Time: 0.002
-0.0092592191696167	-0.002059950113296509	0		0.5441481323242188	-2.573892333984375	0		-1.0438448486328125	0.2548225555419922	0		-0.4224796142578125	-3.271740966796875	0		1.8232984619140624	-1.0397333984375	0		3.28853955078125	-0.5009213562011718	0		4.50091455078125	-0.2706068725585937	0		5.97793310546875	0.5300090942382812	0		-0.13935269165039063	5.93425390625	0		
-0.0029491329193115233	0.004714478015899659	0		0.5432710571289062	-2.575959228515625	0		-1.0436885986328126	0.25472714233398436	0		-0.4223101806640625	-3.271833984375	0		1.8573189697265624	-1.04656640625	0		3.277194091796875	-0.5237523803710937	0		4.48742919921875	-0.2543766784667969	0		5.9812861328125	0.53887158203125	0		-0.13921775817871093	5.93416162109375	0		
-0.00592286205291748	6.88517987728119E-4	0		0.598917236328125	-2.598280029296875	0		-1.0076065673828125	0.25283682250976564	0		-0.4242284851074219	-3.273884033203125	0		1.8492178955078125	-1.05647412109375	0		3.28741748046875	-0.5190556030273438	0		4.484412109375	-0.26038629150390624	0		5.98139794921875	0.5387996826171875	0		-0.14008062744140626	5.93608984375	0		
-0.008921804428100586	-0.0023395249843597412	0		0.5383380126953125	-2.58203173828125	0		-1.0116060791015624	0.24982745361328124	0		-0.4251948547363281	-3.275957763671875	0		1.844134765625	-1.0634508056640626	0		3.2701591796875	-0.533760986328125	0		4.4844794921875	-0.2604660949707031	0		5.981462890625	0.5387249145507812	0		-0.15525094604492187	5.92632763671875	0		
-0.008904911994934083	-0.002436672925949097	0		0.5959082641601563	-2.603400634765625	0		-1.043494140625	0.25443148803710935	0		-0.5187918701171875	-3.257988037109375	0		1.81098681640625	-1.0708126220703125	0		3.26126806640625	-0.529650146484375	0		4.4844970703125	-0.2605487060546875	0		5.9702822265625	0.5298917846679687	0		-0.15427549743652344	5.9252080078125	0		
-0.0027852210998535157	0.0043297910690307615	0		0.5579146728515625	-2.6016611328125	0		-1.0394407958984375	0.2582394714355469	0		-0.40315139770507813	-3.274642578125	0		1.8605701904296874	-1.08900439453125	0		3.278681396484375	-0.5551300048828125	0		4.479267578125	-0.26952166748046874	0		5.97344482421875	0.5387428588867188	0		-0.13815499877929688	5.93275341796875	0		
0.0011979440450668336	0.007138654232025147	0		0.5989192504882812	-2.598666015625	0		-1.0025546264648437	0.2563187561035156	0		-0.41089031982421875	-3.259573486328125	0		1.86049169921875	-1.0891005859375	0		3.29321484375	-0.5275369873046875	0		4.48751513671875	-0.25478945922851565	0		5.96953857421875	0.5467459716796875	0		-0.12401702880859375	5.94333935546875	0		
-0.006083209991455078	1.8874999880790711E-4	0		0.5677186279296875	-2.6020859375	0		-0.9707799682617188	0.2515054931640625	0		-0.4110081481933594	-3.2596806640625	0		1.8531480712890624	-1.099043701171875	0		3.266455322265625	-0.5560520629882812	0		4.484255859375	-0.26081292724609373	0		5.98122900390625	0.5383973999023437	0		-0.1413153533935547	5.936609375	0		
-0.009320889472961426	-0.0028556621074676512	0		0.5914390258789063	-2.60772265625	0		-1.0079441528320312	0.2522061767578125	0		-0.40910400390625	-3.256838134765625	0		1.8499140625	-1.1020819091796874	0		3.25735302734375	-0.552954833984375	0		4.48408447265625	-0.2609092102050781	0		5.96505859375	0.5386586303710937	0		-0.1557463836669922	5.92580908203125	0		
-0.00953272819519043	-0.0029743549823760987	0		0.5403801879882812	-2.600717529296875	0		-1.0081568603515625	0.252084228515625	0		-0.416972900390625	-3.241785400390625	0		1.8476402587890626	-1.1051497802734376	0		3.27383056640625	-0.5674339599609375	0		4.4807421875	-0.2669457092285156	0		5.96866796875	0.5304732055664062	0		-0.1417386474609375	5.93637890625	0		
-0.009777923583984376	-0.003102202892303467	0		0.5519859619140625	-2.608106201171875	0		-1.040284912109375	0.2576568603515625	0		-0.52685107421875	-3.22449560546875	0		1.8563082275390625	-1.1094691162109376	0		3.26196435546875	-0.55029150390625	0		4.4726318359375	-0.2608849792480469	0		5.96939892578125	0.529342041015625	0		-0.1420021667480469	5.93625048828125	0		
0.025163219451904296	0.0059864821434021	0		0.5668511352539063	-2.60257470703125	0		-0.9675960083007813	0.25490850830078127	0		-0.4148975219726562	-3.216104248046875	0		1.852953369140625	-1.1135350341796875	0		3.265165771484375	-0.5745027465820313	0		4.483359375	-0.26125277709960937	0		5.980322265625	0.5379762573242187	0		-0.14228941345214843	5.93611181640625	0		
-0.010336252212524414	-0.0033897550106048585	0		0.5395982055664063	-2.60112841796875	0		-1.0449317626953125	0.2534529876708984	0		-0.5406846313476562	-3.1924853515625	0		1.8454718017578124	-1.1225235595703125	0		3.28220556640625	-0.5600222778320313	0		4.483072265625	-0.26139141845703123	0		5.97621044921875	0.5459273071289062	0		-0.1568302001953125	5.9252734375	0		
